<svg width="76" height="60" viewBox="0 0 76 60" fill="none" xmlns="http://www.w3.org/2000/svg">
<rect y="35" width="25.7898" height="25" rx="12.5" fill="#E57B6D"/>
<path d="M24.5003 53.1261V43.5546C33.1401 43.5546 33.2309 38.5758 37.4047 33.7608C38.421 32.5873 39.4497 31.4059 40.5309 30.3129C39.4495 29.2218 38.421 28.0398 37.4047 26.8652C33.2309 22.0509 33.1401 17.0714 24.5003 17.0714V7.5C36.529 7.5 38.6016 14.7651 43.1978 20.0705C45.9239 23.2163 47.6761 25.1358 49.5454 25.5077C49.7684 25.4939 49.9869 25.4765 50.2164 25.4765V25.5781L61.2508 25.6338L59.9827 17.275C59.869 16.9414 59.9613 16.5604 60.2085 16.3451C60.4542 16.1294 60.7938 16.1303 61.0376 16.3493L75.7338 29.7882C75.902 29.9392 76 30.1732 76 30.4204C76 30.6676 75.902 30.9019 75.7338 31.0524L61.2849 44.2516C61.162 44.3609 61.0146 44.4165 60.8678 44.4165C60.7228 44.4165 60.5778 44.3628 60.4557 44.2555C60.2085 44.0407 60.1179 43.659 60.23 43.3255L61.2508 35.2051L50.1921 35.1493C50.1856 35.1493 50.1793 35.1474 50.1736 35.1474C49.9601 35.1474 49.7532 35.132 49.5455 35.1195C47.6761 35.4905 45.9247 37.41 43.1979 40.5567C38.6016 45.8606 36.529 53.1261 24.5003 53.1261Z" fill="url(#paint0_linear_104_67)"/>
<path d="M24.5003 53.1261V43.5546C33.1401 43.5546 33.2309 38.5758 37.4047 33.7608C38.421 32.5873 39.4497 31.4059 40.5309 30.3129C39.4495 29.2218 38.421 28.0398 37.4047 26.8652C33.2309 22.0509 33.1401 17.0714 24.5003 17.0714V7.5C36.529 7.5 38.6016 14.7651 43.1978 20.0705C45.9239 23.2163 47.6761 25.1358 49.5454 25.5077C49.7684 25.4939 49.9869 25.4765 50.2164 25.4765V25.5781L61.2508 25.6338L59.9827 17.275C59.869 16.9414 59.9613 16.5604 60.2085 16.3451C60.4542 16.1294 60.7938 16.1303 61.0376 16.3493L75.7338 29.7882C75.902 29.9392 76 30.1732 76 30.4204C76 30.6676 75.902 30.9019 75.7338 31.0524L61.2849 44.2516C61.162 44.3609 61.0146 44.4165 60.8678 44.4165C60.7228 44.4165 60.5778 44.3628 60.4557 44.2555C60.2085 44.0407 60.1179 43.659 60.23 43.3255L61.2508 35.2051L50.1921 35.1493C50.1856 35.1493 50.1793 35.1474 50.1736 35.1474C49.9601 35.1474 49.7532 35.132 49.5455 35.1195C47.6761 35.4905 45.9247 37.41 43.1979 40.5567C38.6016 45.8606 36.529 53.1261 24.5003 53.1261Z" fill="url(#paint1_linear_104_67)"/>
<path d="M25.7898 12.5C25.7898 19.4036 20.0166 25 12.8949 25C5.77324 25 0 19.4036 0 12.5C0 5.59644 5.77324 0 12.8949 0C20.0166 0 25.7898 5.59644 25.7898 12.5Z" fill="#356167"/>
<defs>
<linearGradient id="paint0_linear_104_67" x1="41.9084" y1="27.1881" x2="24.5498" y2="50.2115" gradientUnits="userSpaceOnUse">
<stop/>
<stop offset="0.622556" stop-color="#E57B6D"/>
</linearGradient>
<linearGradient id="paint1_linear_104_67" x1="23.2108" y1="8.43811" x2="41.8247" y2="32.4399" gradientUnits="userSpaceOnUse">
<stop offset="0.514079" stop-color="#356167"/>
<stop offset="1" stop-opacity="0"/>
</linearGradient>
</defs>
</svg>
