<svg width="19" height="19" viewBox="0 0 19 19" fill="none" xmlns="http://www.w3.org/2000/svg">
<path d="M18 6.57021V17.2766C18 17.4685 17.9238 17.6525 17.7881 17.7881C17.6525 17.9238 17.4685 18 17.2766 18H1.7234C1.53155 18 1.34754 17.9238 1.21188 17.7881C1.07622 17.6525 1 17.4685 1 17.2766V1.7234C1 1.53155 1.07622 1.34754 1.21188 1.21188C1.34754 1.07622 1.53155 1 1.7234 1H12.9868" stroke="black"/>
<path d="M5.22951 11.6878L5.00189 13.6689C4.99688 13.7131 5.00186 13.7578 5.01648 13.7998C5.0311 13.8418 5.05498 13.8801 5.08636 13.9117C5.11775 13.9433 5.15584 13.9675 5.19784 13.9825C5.23985 13.9975 5.28469 14.003 5.32909 13.9985L7.30651 13.7717C7.37351 13.7634 7.43596 13.7335 7.48433 13.6866L17.8267 3.34191C17.8816 3.28727 17.9252 3.22236 17.9549 3.15091C17.9847 3.07946 18 3.00286 18 2.9255C18 2.84814 17.9847 2.77155 17.9549 2.70009C17.9252 2.62864 17.8816 2.56374 17.8267 2.50909L16.493 1.17304C16.3816 1.06223 16.2307 1 16.0733 1C15.9159 1 15.765 1.06223 15.6536 1.17304L5.31131 11.5142C5.26533 11.5613 5.23653 11.6225 5.22951 11.6878Z" stroke="black"/>
<path d="M14 3L16 5" stroke="black"/>
</svg>
